<svg id="drawing" xmlns="http://www.w3.org/2000/svg" version="1.1" xmlns:xlink="http://www.w3.org/1999/xlink" width="970.8480834960938" height="805.0908813476562" viewBox="37.51847839355469 61.18750762939453 970.8480834960938 805.0908813476562"><defs id="SvgjsDefs1152"><marker id="SvgjsMarker1177" markerWidth="16.23606797749979" markerHeight="10.550836550532098" refX="-1" refY="3.8990363547948754" viewBox="-1 -1.3763819204711738 16.23606797749979 10.550836550532098" orient="auto" markerUnits="userSpaceOnUse"><path id="SvgjsPath1178" d="M12 3.899036407470703L0 7.798072814941406V0Z " stroke="#323232" stroke-width="2" fill="#323232" transform="matrix(1,0,0,1,0,0)"></path></marker><marker id="SvgjsMarker1184" markerWidth="16.23606797749979" markerHeight="10.550836550532098" refX="-1" refY="3.8990363547948754" viewBox="-1 -1.3763819204711738 16.23606797749979 10.550836550532098" orient="auto" markerUnits="userSpaceOnUse"><path id="SvgjsPath1185" d="M12 3.899036407470703L0 7.798072814941406V0Z " stroke="#323232" stroke-width="2" fill="#323232" transform="matrix(1,0,0,1,0,0)"></path></marker><marker id="SvgjsMarker1191" markerWidth="16.23606797749979" markerHeight="10.550836550532098" refX="15.23606797749979" refY="3.8990363547948754" viewBox="-1 -1.3763819204711738 16.23606797749979 10.550836550532098" orient="auto" markerUnits="userSpaceOnUse"><path id="SvgjsPath1192" d="M12 3.899036407470703L0 7.798072814941406V0Z " stroke="#323232" stroke-width="2" fill="#323232" transform="matrix(-1,1.2246467991473532e-16,-1.2246467991473532e-16,-1,14.23606797749979,7.79807270958975)"></path></marker><marker id="SvgjsMarker1193" markerWidth="16.23606797749979" markerHeight="10.550836550532098" refX="-1" refY="3.8990363547948754" viewBox="-1 -1.3763819204711738 16.23606797749979 10.550836550532098" orient="auto" markerUnits="userSpaceOnUse"><path id="SvgjsPath1194" d="M12 3.899036407470703L0 7.798072814941406V0Z " stroke="#323232" stroke-width="2" fill="#323232" transform="matrix(1,0,0,1,0,0)"></path></marker></defs><g id="SvgjsG1153"><path id="SvgjsPath1154" d="M37.51847839355469 61.18750762939453H1008.3665771484375V866.2783813476562H37.51847839355469V61.18750762939453Z " fill-opacity="1" fill="#ffffff"></path><g id="SvgjsG1155"><g id="SvgjsG1156" transform="translate(198.0028533935547 278.18750762939453)" opacity="1"><path id="SvgjsPath1157" d="M23.33333396911621 12.5C23.33333396911621 -4.166666507720947 46.66666793823242 -4.166666507720947 46.66666793823242 12.5C46.66666793823242 29.16666603088379 23.33333396911621 29.16666603088379 23.33333396911621 12.5M35 25L35 75M35 75L5.833333492279053 100M35 75L64.16666412353516 100M0 50L70 50 " stroke-dasharray="none" stroke="#323232" stroke-width="2" fill="#ffffff" opacity="1"></path></g><g id="SvgjsG1158" transform="translate(155.0028533935547 210.18750762939453)" opacity="1"><path id="SvgjsPath1159" d="M0 0L191 0L207 16L207 54L0 54L0 0Z " stroke-dasharray="none" stroke="#323232" stroke-width="2" fill="#ffffff" opacity="1"></path><path id="SvgjsPath1160" d="M191 0L191 16L207 16 " stroke-dasharray="none" stroke="#323232" stroke-width="2" fill="#ffffff" opacity="1"></path><path id="SvgjsPath1161" d="M0 0L191 0L207 16L207 54L0 54L0 0Z " stroke-dasharray="none" stroke="#323232" stroke-width="2" fill="none" opacity="1"></path><g id="SvgjsG1162" transform="matrix(1 0 0 1 10 4.5)" fill="#ffffff"><text id="SvgjsText1163" font-family="微软雅黑,黑体,Arial,宋体" fill="#000000" font-size="18" font-weight="normal" font-style="normal" text-anchor="middle" text-decoration="blink" x="93.5" y="16.359375">client（JS、Android、</text><text id="SvgjsText1164" font-family="微软雅黑,黑体,Arial,宋体" fill="#000000" font-size="18" font-weight="normal" font-style="normal" text-anchor="middle" text-decoration="blink" x="93.5" y="38.859375">iOS app）</text></g></g><g id="SvgjsG1165" transform="translate(382.0028533935547 81.18750762939453)" opacity="1"><path id="SvgjsPath1166" d="M0 0L207 0L223 16L223 80L0 80L0 0Z " stroke-dasharray="none" stroke="#323232" stroke-width="2" fill="#ffffff" opacity="1"></path><path id="SvgjsPath1167" d="M207 0L207 16L223 16 " stroke-dasharray="none" stroke="#323232" stroke-width="2" fill="#ffffff" opacity="1"></path><path id="SvgjsPath1168" d="M0 0L207 0L223 16L223 80L0 80L0 0Z " stroke-dasharray="none" stroke="#323232" stroke-width="2" fill="none" opacity="1"></path><g id="SvgjsG1169" transform="matrix(1 0 0 1 10 28.75)" fill="#ffffff"><text id="SvgjsText1170" font-family="微软雅黑,黑体,Arial,宋体" fill="#000000" font-size="18" font-weight="normal" font-style="normal" text-anchor="middle" text-decoration="blink" x="101.5" y="16.359375">纯API架构</text></g></g><g id="SvgjsG1171" transform="translate(132.0028533935547 693.5511379241943)" opacity="1"><path id="SvgjsPath1172" d="M0 0L234 0L234 119L0 119Z " stroke-dasharray="none" stroke="#323232" stroke-width="2" fill="#ffffff" opacity="1"></path><g id="SvgjsG1173" transform="matrix(1 0 0 1 10 48.25)" fill="#ffffff"><text id="SvgjsText1174" font-family="微软雅黑,黑体,Arial,宋体" fill="#000000" font-size="18" font-weight="normal" font-style="normal" text-anchor="middle" text-decoration="blink" x="107" y="16.359375">HTTP API</text></g></g><g id="SvgjsG1175"><path id="SvgjsPath1176" d="M364.60870361328125 694.1289672851562L364.60870361328125 536.1582641601562L233.0028533935547 536.1582641601562L233.0028533935547 393.423583984375 " stroke-dasharray="10 4" stroke="#323232" stroke-width="2" fill="none" marker-end="url(#SvgjsMarker1177)"></path><g id="SvgjsG1179" transform="matrix(1 0 0 1 306.4238168806647 524.9082469495452)" fill="#ffffff"><path id="SvgjsPath1180" d="M0 0H150.96875V20H0V0Z " fill="#ffffff" transform="translate(-75.484375 0)"></path><text id="SvgjsText1181" font-family="Microsoft Yahei,宋体" fill="#000000" font-size="18" font-weight="normal" font-style="normal" text-anchor="middle" text-decoration="blink" x="0" y="16.359375">2、返回本站session</text></g></g><g id="SvgjsG1182"><path id="SvgjsPath1183" d="M198.0028533935547 328.1875L134.0028533935547 328.1875L134.0028533935547 663.5511474609375L249.0028533935547 663.5511474609375L249.0028533935547 678.3150634765625 " stroke-dasharray="10 4" stroke="#323232" stroke-width="2" fill="none" marker-end="url(#SvgjsMarker1184)"></path><g id="SvgjsG1186" transform="matrix(1 0 0 1 134.0028533935547 517.5012887880446)" fill="#ffffff"><path id="SvgjsPath1187" d="M0 0H152.96875V20H0V0Z " fill="#ffffff" transform="translate(-76.484375 0)"></path><text id="SvgjsText1188" font-family="Microsoft Yahei,宋体" fill="#000000" font-size="18" font-weight="normal" font-style="normal" text-anchor="middle" text-decoration="blink" x="0" y="16.359375">1、用户名密码登录</text></g></g><g id="SvgjsG1189"><path id="SvgjsPath1190" d="M381.07080078125 755.3082275390625C988.3665161132812 846.2783813476562 455.4573974609375 512.1875 277.21368408203125 386.3495178222656 " stroke-dasharray="none" stroke="#323232" stroke-width="2" fill="none" marker-start="url(#SvgjsMarker1191)" marker-end="url(#SvgjsMarker1193)"></path><g id="SvgjsG1195" transform="matrix(1 0 0 1 623.7195171509941 618.38193398683)" fill="#ffffff"><path id="SvgjsPath1196" d="M0 0H415.9530944824219V65H0V0Z " fill="#ffffff" transform="translate(-207.97654724121094 0)"></path><text id="SvgjsText1197" font-family="Microsoft Yahei,宋体" fill="#000000" font-size="18" font-weight="normal" font-style="normal" text-anchor="middle" text-decoration="blink" x="0" y="16.359375">3、client携带session调用API，返回各种数据。</text><text id="SvgjsText1198" font-family="Microsoft Yahei,宋体" fill="#000000" font-size="18" font-weight="normal" font-style="normal" text-anchor="middle" text-decoration="blink" x="0" y="38.859375">JS使用xhr2直接跨域或jsonp，Android/iOS直接调用。</text><text id="SvgjsText1199" font-family="Microsoft Yahei,宋体" fill="#000000" font-size="18" font-weight="normal" font-style="normal" text-anchor="middle" text-decoration="blink" x="0" y="61.359375">session放在HTTP HEADER Authorization里</text></g></g></g></g></svg>